<svg width="129" height="45" viewBox="0 0 129 45" fill="none" xmlns="http://www.w3.org/2000/svg">
<path d="M46.1406 38.4243L38.0385 35.7236L44.9832 21.0625V17.976H28.0072V21.0625H20.2909V21.8341H19.5192L8.71635 29.5505H7.94471V30.3221H1.77163V29.5505H1V11.0312H44.2115V8.71635H51.9279V4.85817H54.2428L56.5577 7.94471H105.171V2.54327H105.942V1H106.714V3.3149H107.486V7.55889H108.257V11.8029H128.32V14.8894H108.257V18.7476H74.3053L73.5337 19.5192V26.4639L77.7776 40.7392L68.518 44.2115L62.7308 26.4639H51.5421C51.2334 26.4639 47.8125 34.4375 46.1406 38.4243Z" fill="#D9D9D9" fill-opacity="0.85" stroke="white" stroke-opacity="0.85" stroke-width="0.771635"/>
<path d="M55.4004 21.4482V23.7631H61.5735V22.2198V21.4482V20.6766H60.8018V19.1333H56.172V21.4482H55.4004Z" fill="#07090A" fill-opacity="0.85"/>
<path d="M61.5735 22.2198V21.4482V20.6766H60.8018V19.1333H56.172V21.4482H55.4004C55.4004 22.0912 55.4004 23.4545 55.4004 23.7631H61.5735V22.2198ZM61.5735 22.2198H62.3451" stroke="white" stroke-opacity="0.85" stroke-width="0.771635"/>
</svg>
