<svg width="44" height="46" viewBox="0 0 44 46" fill="none" xmlns="http://www.w3.org/2000/svg">
<path d="M33.1819 3.31566L28.2647 0.437314L26.106 4.27511C27.1614 4.37105 29.7439 6.15403 30.9032 7.03352L33.1819 3.31566Z" fill="white"/>
<path d="M25.5063 1.75656L24.5469 3.31566L22.0283 1.87649L22.8678 0.317383L25.5063 1.75656Z" fill="white"/>
<path d="M26.5861 24.064L12.4342 15.9087L6.55762 26.2228L20.7095 34.3781L26.5861 24.064Z" fill="white"/>
<path d="M5.2383 27.5417L3.79912 26.7021L0.920778 31.8592C-1.3819 36.7524 2.99958 41.4137 5.47816 43.1327C11.5227 46.5867 16.0721 44.6518 17.5912 43.2526L19.63 40.1344L21.5489 36.8963L19.9898 36.0568L17.5912 40.3743L16.0321 39.5348L18.4307 35.2173L13.0338 32.099L10.6352 36.4166L9.07609 35.4571L11.4747 31.1396L6.7974 28.5011L4.27885 32.6987L2.83968 31.8592L5.2383 27.5417Z" fill="white" stroke="white" stroke-width="0.239862"/>
<path d="M27.9054 22.865L29.3445 23.5846L31.983 19.0272C33.3022 16.7485 34.0698 11.0878 26.5861 6.6743C18.3349 3.0284 14.2732 7.63375 13.2738 10.3922L11.5947 13.2705L13.1538 14.23L15.4325 10.3922L16.9916 11.2317L14.7129 15.1894L19.3902 17.8279L21.549 13.9901L23.228 14.9495L20.9493 18.7873L26.3462 21.9055L28.505 18.0678L30.0641 19.0272L27.9054 22.865Z" fill="white"/>
<path d="M39.4189 11.1108C40.1242 11.111 40.8805 11.5401 41.5039 12.4751C42.123 13.4037 42.5371 14.7422 42.5371 16.2681C42.5371 17.7939 42.1229 19.1324 41.5039 20.061C40.8805 20.9962 40.1242 21.4251 39.4189 21.4253C38.7135 21.4253 37.9566 20.9964 37.333 20.061C36.714 19.1324 36.2998 17.7939 36.2998 16.2681C36.2999 14.7422 36.714 13.4037 37.333 12.4751C37.9565 11.5398 38.7136 11.1108 39.4189 11.1108Z" stroke="white" stroke-width="1.9189"/>
<path d="M33.4225 6.31445L32.583 7.87356L37.6201 10.8718L40.3785 10.3921L33.4225 6.31445Z" fill="white"/>
<path d="M15.8733 25.8169L15.7538 26.0303L15.4084 25.8368C15.4571 25.6959 15.4124 25.5821 15.384 25.5428C15.2017 25.4408 14.8463 25.2067 14.883 25.0871C14.9289 24.9376 15.1636 24.7886 14.6178 24.4129C14.072 24.0372 14.4294 23.4664 14.6629 23.387C14.8498 23.3234 14.844 22.9511 14.8178 22.7729C15.0731 19.8322 17.6536 20.3194 18.912 20.9306C22.3734 23.3245 19.6419 25.299 19.4808 25.3841C19.3198 25.4691 18.9667 25.762 19.0381 25.837C19.0953 25.897 19.0192 26.1184 18.974 26.2216C18.8847 26.3585 18.5909 26.5817 18.1294 26.3794C17.5527 26.1265 17.5909 26.4633 17.4736 26.5377C17.3563 26.6122 17.2262 26.5744 16.9821 26.4027C16.7868 26.2653 16.6384 26.4088 16.5886 26.4977L16.2432 26.3043L16.3339 26.0747L15.8733 25.8169Z" fill="black"/>
<path d="M16.4333 22.521C15.8116 22.1729 15.5031 22.5842 15.4266 22.8333C15.2943 22.9345 15.3836 23.7203 16.1364 23.8615C16.8891 24.0027 16.997 23.6076 17.1015 23.4208C17.2061 23.2341 17.2105 22.9562 16.4333 22.521Z" fill="white"/>
<path d="M18.6774 27.562L12.181 26.1318L12.2393 27.0405L18.6206 28.4063L18.6774 27.562Z" fill="black"/>
<ellipse cx="11.8464" cy="27.0657" rx="0.62681" ry="0.550333" transform="rotate(29.2478 11.8464 27.0657)" fill="black"/>
<ellipse cx="11.9623" cy="26.1847" rx="0.62681" ry="0.580907" transform="rotate(29.2478 11.9623 26.1847)" fill="black"/>
<ellipse cx="0.607631" cy="0.569311" rx="0.607631" ry="0.569311" transform="matrix(0.376029 0.926608 -0.952231 0.30538 12.9873 24.1201)" fill="black"/>
<ellipse cx="0.607631" cy="0.600939" rx="0.607631" ry="0.600939" transform="matrix(0.376029 0.926608 -0.952231 0.30538 13.71 23.5537)" fill="black"/>
<ellipse cx="0.607631" cy="0.569311" rx="0.607631" ry="0.569311" transform="matrix(0.376029 0.926608 -0.952231 0.30538 17.7812 29.4683)" fill="black"/>
<ellipse cx="0.607631" cy="0.600939" rx="0.607631" ry="0.600939" transform="matrix(0.376029 0.926608 -0.952231 0.30538 18.5039 28.9014)" fill="black"/>
<ellipse cx="0.626562" cy="0.550586" rx="0.626562" ry="0.550586" transform="matrix(0.904313 0.42687 -0.416568 0.909104 18.6055 27.6274)" fill="black"/>
<ellipse cx="0.626562" cy="0.581174" rx="0.626562" ry="0.581174" transform="matrix(0.904313 0.42687 -0.416568 0.909104 18.6641 26.708)" fill="black"/>
<path d="M15.4815 26.7183L14.1786 26.4793L12.7193 25.1015L13.6685 24.7569L15.4815 26.7183Z" fill="black"/>
<path d="M15.4815 26.7183L14.1786 26.4793L12.7193 25.1015L13.6685 24.7569L15.4815 26.7183Z" fill="black"/>
<path d="M15.4815 26.7183L14.1786 26.4793L12.7193 25.1015L13.6685 24.7569L15.4815 26.7183Z" stroke="black" stroke-width="0.239862"/>
<path d="M16.6802 28.09L15.3634 27.8082L17.2916 29.8341L17.938 29.355L16.6802 28.09Z" fill="black"/>
<path d="M18.7657 23.8268C19.3533 24.1278 19.301 24.5587 19.2014 24.7366C19.1531 24.9057 18.8478 25.0875 18.7012 25.1573C18.3824 25.1189 17.7145 24.9342 17.5935 24.502C17.4726 24.0698 17.6777 23.7665 17.7954 23.6689C17.874 23.5961 18.178 23.5257 18.7657 23.8268Z" fill="white"/>
<path d="M16.7823 25.2743C16.7371 25.193 16.6399 25.1011 16.5969 25.0654C16.476 25.0561 16.2173 25.014 16.1491 24.9197C16.0809 24.8255 16.1136 24.713 16.1385 24.6685C16.5065 24.349 16.8286 24.1789 17.045 24.2651C17.2614 24.3512 17.1332 25.1204 17.1459 25.2327C17.1587 25.3449 16.8388 25.376 16.7823 25.2743Z" fill="white"/>
</svg>
