<svg width="37" height="43" viewBox="0 0 37 43" fill="none" xmlns="http://www.w3.org/2000/svg">
<path d="M23.2669 25.2288H20.0898V26.1582H23.1225C23.2669 26.5564 23.758 27.3796 24.5667 27.4858C25.3754 27.592 25.4813 27.176 25.4332 26.9547L24.7111 26.1582C25.3369 26.1582 26.5307 26.0519 26.2996 25.6271C26.0686 25.2023 25.8183 25.0961 25.722 25.0961H24.7111L25.2887 24.2995C25.5198 23.556 24.9999 23.7242 24.7111 23.9012L23.2669 25.2288Z" fill="white" stroke="white" stroke-width="0.662827"/>
<path d="M11.9674 25.9787H15.1445V25.0494H12.1118C11.9674 24.6511 11.4764 23.8279 10.6677 23.7217C9.85898 23.6155 9.75308 24.0315 9.80122 24.2528L10.5233 25.0494C9.89749 25.0494 8.70367 25.1556 8.93473 25.5804C9.1658 26.0053 9.41611 26.1115 9.51239 26.1115H10.5233L9.94563 26.908C9.71457 27.6515 10.2345 27.4833 10.5233 27.3063L11.9674 25.9787Z" fill="white" stroke="white" stroke-width="0.662827"/>
<path d="M21.2857 21.6552L18.9504 23.6357L19.6359 24.3187L21.865 22.4283C22.2649 22.6311 23.2329 22.93 23.9056 22.504C24.5784 22.0779 24.3494 21.7062 24.1508 21.5735L23.0326 21.4381C23.4925 21.048 24.2917 20.2258 23.8085 20.0576C23.3253 19.8893 23.063 19.9673 22.9922 20.0273L22.2492 20.6575L22.0863 19.7119C21.7078 19.0214 21.4497 19.4691 21.3679 19.7792L21.2857 21.6552Z" fill="white" stroke="white" stroke-width="0.662827"/>
<path d="M13.9801 29.4951L16.2583 27.4593L15.5537 26.7929L13.3791 28.7362C12.9735 28.5431 11.9974 28.2675 11.337 28.7096C10.6765 29.1516 10.916 29.5178 11.1183 29.6456L12.24 29.7541C11.7913 30.1551 11.0158 30.9962 11.5035 31.1528C11.9913 31.3094 12.2514 31.2251 12.3204 31.1634L13.0453 30.5157L13.235 31.457C13.633 32.1382 13.8783 31.6845 13.9512 31.3725L13.9801 29.4951Z" fill="white" stroke="white" stroke-width="0.662827"/>
<path d="M21.8351 28.9733L19.6674 26.8379L18.9283 27.472L20.9975 29.5103C20.7793 29.8791 20.4597 30.7707 20.9271 31.3867C21.3944 32.0027 21.7974 31.7901 21.9406 31.6067L22.0814 30.5779C22.5083 30.9985 23.4073 31.7284 23.5875 31.2833C23.7677 30.8381 23.6814 30.5974 23.6157 30.5327L22.926 29.8533L23.9536 29.698C24.7025 29.346 24.214 29.1114 23.8762 29.038L21.8351 28.9733Z" fill="white" stroke="white" stroke-width="0.662827"/>
<path d="M13.1077 22.0313L15.3812 24.1475L16.1004 23.4945L13.9303 21.4745C14.1352 21.0984 14.4209 20.1929 13.9244 19.5797C13.4279 18.9664 13.0302 19.1881 12.8934 19.3757L12.7936 20.4164C12.3458 19.9996 11.4093 19.279 11.2459 19.7315C11.0824 20.1839 11.1793 20.4253 11.2482 20.4894L11.9716 21.1627L10.9418 21.3377C10.201 21.7063 10.7032 21.9344 11.0469 22.0024L13.1077 22.0313Z" fill="white" stroke="white" stroke-width="0.662827"/>
<path d="M17.157 20.4122V23.333H18.1679V20.545C18.6011 20.4122 19.4965 19.9608 19.612 19.2174C19.7275 18.4739 19.275 18.3765 19.0344 18.4208L18.1679 19.0846C18.1679 18.5093 18.0523 17.4118 17.5902 17.6242C17.1281 17.8366 17.0126 18.0667 17.0126 18.1553V19.0846L16.1461 18.5535C15.3374 18.3411 15.5203 18.8191 15.7128 19.0846L17.157 20.4122Z" fill="white" stroke="white" stroke-width="0.662827"/>
<path d="M18.0217 30.8739V27.9531H17.0108V30.7411C16.5776 30.8739 15.6822 31.3253 15.5667 32.0688C15.4512 32.8122 15.9037 32.9096 16.1444 32.8654L17.0108 32.2015C17.0108 32.7768 17.1264 33.8743 17.5885 33.6619C18.0506 33.4495 18.1661 33.2194 18.1661 33.1309V32.2015L19.0326 32.7326C19.8413 32.945 19.6584 32.4671 19.4659 32.2015L18.0217 30.8739Z" fill="white" stroke="white" stroke-width="0.662827"/>
<path d="M17.5703 24.3657C17.9219 24.3658 18.2952 24.5182 18.583 24.7827C18.8742 25.0504 18.9883 25.3458 18.9883 25.563C18.9883 25.7802 18.8742 26.0756 18.583 26.3433C18.2952 26.6078 17.9219 26.7602 17.5703 26.7603C17.2186 26.7603 16.8446 26.608 16.5566 26.3433C16.2656 26.0756 16.1514 25.7802 16.1514 25.563C16.1514 25.3458 16.2656 25.0503 16.5566 24.7827C16.8446 24.518 17.2186 24.3657 17.5703 24.3657Z" fill="white" stroke="white" stroke-width="2.65131"/>
<path d="M23.9844 2.45215V10.3809H11.7217V2.45215H23.9844Z" stroke="white" stroke-width="3.31413"/>
<path d="M24.0679 11.5635L23.3223 12.6283C26.0067 14.7107 27.5892 18.071 28.0449 19.4908L29.5363 19.0175C28.7409 15.8939 25.5593 12.7467 24.0679 11.5635Z" fill="#595959" stroke="white" stroke-width="0.662827"/>
<path d="M28.666 21.5018L28.7903 22.8033H30.4059L30.0331 21.2651L28.666 21.5018Z" fill="#595959" stroke="white" stroke-width="0.662827"/>
<path d="M30.1569 29.3109L28.7899 29.0742C28.1933 33.7123 24.8129 37.317 23.1973 38.5396L24.0672 39.6045C27.6465 37.8061 29.6184 31.9927 30.1569 29.3109Z" fill="#595959" stroke="white" stroke-width="0.662827"/>
<path d="M29.6602 2.07471L33.6201 8.58643L33.1768 8.14404L27.957 2.93799L27.375 2.35693H21.7061V10.4751H24.0176C26.5932 12.0646 28.3313 14.445 29.458 16.9097C30.6521 19.5218 31.0991 22.0974 31.1523 23.5845L31.1982 24.8687L32.3887 25.354C32.4204 25.3669 32.4949 25.4024 32.585 25.4595L32.5869 25.4604C32.5669 25.4747 32.5473 25.4902 32.5264 25.5034C32.4933 25.5243 32.4639 25.5412 32.4404 25.5532C32.4176 25.5649 32.4053 25.5702 32.4062 25.5698L31.1816 26.0552L31.1514 27.3726C30.9825 34.8498 26.0961 39.2579 23.4648 40.6919H11.291C8.72599 39.1858 6.97321 36.8465 5.82227 34.3872C4.60502 31.7861 4.12705 29.1909 4.05566 27.6792L3.99414 26.3599L2.75391 25.9058L2.68457 25.8647C2.62932 25.8283 2.5763 25.7833 2.53418 25.7368C2.49333 25.6917 2.47182 25.655 2.46094 25.6294C2.45218 25.6087 2.4424 25.5789 2.44238 25.5249C2.44238 25.512 2.44369 25.502 2.44434 25.4946C2.44826 25.4914 2.45322 25.4879 2.45898 25.4839C2.47058 25.4758 2.48376 25.4673 2.49707 25.4604C2.50606 25.4558 2.51331 25.4519 2.51855 25.4497L3.87305 25.1528L4.04395 23.7544C4.65023 18.7816 6.22889 15.6919 7.82715 13.769C9.4315 11.8389 11.1497 10.9718 12.1934 10.5933L13.5039 10.1177V2.35693H10.6455V2.07471H29.6602ZM33.7607 8.81689L34.2578 9.63428V15.061C34.1523 15.0628 34.0471 15.0668 33.9434 15.0679C33.8815 15.0685 33.8204 15.0676 33.7607 15.0679V8.81689Z" stroke="white" stroke-width="3.97696"/>
</svg>
